<mxfile host="app.diagrams.net" modified="2024-04-09T06:55:11.163Z" agent="Mozilla/5.0 (Windows NT 10.0; Win64; x64) AppleWebKit/537.36 (KHTML, like Gecko) Chrome/123.0.0.0 Safari/537.36" etag="SxnJfQ1kJ1E-KhY_PX1_" version="24.0.7" type="github">
  <diagram name="第 1 页" id="y_ZIP0FnwjLRKOTn00FA">
    <mxGraphModel dx="1050" dy="565" grid="1" gridSize="10" guides="1" tooltips="1" connect="1" arrows="1" fold="1" page="1" pageScale="1" pageWidth="3300" pageHeight="4681" math="0" shadow="0">
      <root>
        <mxCell id="0" />
        <mxCell id="1" parent="0" />
        <mxCell id="AWD3Y8yImG4Fnar8EU3h-4" value="" style="edgeStyle=orthogonalEdgeStyle;rounded=0;orthogonalLoop=1;jettySize=auto;html=1;sketch=1;curveFitting=1;jiggle=2;labelBackgroundColor=none;strokeColor=#A8201A;fontColor=default;" edge="1" parent="1" source="AWD3Y8yImG4Fnar8EU3h-2" target="AWD3Y8yImG4Fnar8EU3h-3">
          <mxGeometry relative="1" as="geometry" />
        </mxCell>
        <mxCell id="AWD3Y8yImG4Fnar8EU3h-2" value="Actor" style="shape=umlActor;verticalLabelPosition=bottom;verticalAlign=top;html=1;outlineConnect=0;sketch=1;curveFitting=1;jiggle=2;labelBackgroundColor=none;fillColor=#FAE5C7;strokeColor=#0F8B8D;fontColor=#143642;" vertex="1" parent="1">
          <mxGeometry x="200" y="190" width="30" height="60" as="geometry" />
        </mxCell>
        <mxCell id="AWD3Y8yImG4Fnar8EU3h-8" value="" style="edgeStyle=orthogonalEdgeStyle;rounded=0;sketch=1;hachureGap=4;jiggle=2;curveFitting=1;orthogonalLoop=1;jettySize=auto;html=1;strokeColor=#A8201A;fontFamily=Architects Daughter;fontSource=https%3A%2F%2Ffonts.googleapis.com%2Fcss%3Ffamily%3DArchitects%2BDaughter;fontColor=#143642;fillColor=#FAE5C7;" edge="1" parent="1" source="AWD3Y8yImG4Fnar8EU3h-3" target="AWD3Y8yImG4Fnar8EU3h-7">
          <mxGeometry relative="1" as="geometry" />
        </mxCell>
        <mxCell id="AWD3Y8yImG4Fnar8EU3h-3" value="&lt;div&gt;&lt;font face=&quot;Comic Sans MS&quot;&gt;&lt;br&gt;&lt;/font&gt;&lt;/div&gt;&lt;font face=&quot;Comic Sans MS&quot;&gt;下单&lt;/font&gt;" style="whiteSpace=wrap;html=1;verticalAlign=top;sketch=1;curveFitting=1;jiggle=2;labelBackgroundColor=none;fillColor=#FAE5C7;strokeColor=#0F8B8D;fontColor=#143642;align=center;" vertex="1" parent="1">
          <mxGeometry x="265" y="190" width="120" height="60" as="geometry" />
        </mxCell>
        <mxCell id="AWD3Y8yImG4Fnar8EU3h-14" value="" style="rounded=0;sketch=1;hachureGap=4;jiggle=2;curveFitting=1;orthogonalLoop=1;jettySize=auto;html=1;strokeColor=#A8201A;fontFamily=Architects Daughter;fontSource=https%3A%2F%2Ffonts.googleapis.com%2Fcss%3Ffamily%3DArchitects%2BDaughter;fontColor=#143642;fillColor=#FAE5C7;" edge="1" parent="1" source="AWD3Y8yImG4Fnar8EU3h-7" target="AWD3Y8yImG4Fnar8EU3h-13">
          <mxGeometry relative="1" as="geometry" />
        </mxCell>
        <mxCell id="AWD3Y8yImG4Fnar8EU3h-7" value="抽奖前" style="whiteSpace=wrap;html=1;verticalAlign=top;sketch=1;curveFitting=1;jiggle=2;labelBackgroundColor=none;fillColor=#f8cecc;strokeColor=#b85450;align=center;" vertex="1" parent="1">
          <mxGeometry x="265" y="330" width="120" height="60" as="geometry" />
        </mxCell>
        <mxCell id="AWD3Y8yImG4Fnar8EU3h-12" value="" style="edgeStyle=orthogonalEdgeStyle;rounded=0;sketch=1;hachureGap=4;jiggle=2;curveFitting=1;orthogonalLoop=1;jettySize=auto;html=1;strokeColor=#A8201A;fontFamily=Architects Daughter;fontSource=https%3A%2F%2Ffonts.googleapis.com%2Fcss%3Ffamily%3DArchitects%2BDaughter;fontColor=#143642;fillColor=#FAE5C7;" edge="1" parent="1" source="AWD3Y8yImG4Fnar8EU3h-9" target="AWD3Y8yImG4Fnar8EU3h-11">
          <mxGeometry relative="1" as="geometry" />
        </mxCell>
        <mxCell id="AWD3Y8yImG4Fnar8EU3h-9" value="开始抽奖" style="whiteSpace=wrap;html=1;verticalAlign=top;sketch=1;curveFitting=1;jiggle=2;labelBackgroundColor=none;fillColor=#FAE5C7;strokeColor=#0F8B8D;fontColor=#143642;align=center;" vertex="1" parent="1">
          <mxGeometry x="265" y="470" width="120" height="60" as="geometry" />
        </mxCell>
        <mxCell id="AWD3Y8yImG4Fnar8EU3h-11" value="结束抽奖" style="whiteSpace=wrap;html=1;verticalAlign=top;sketch=1;curveFitting=1;jiggle=2;labelBackgroundColor=none;fillColor=#FAE5C7;strokeColor=#0F8B8D;fontColor=#143642;align=center;" vertex="1" parent="1">
          <mxGeometry x="265" y="610" width="120" height="60" as="geometry" />
        </mxCell>
        <mxCell id="AWD3Y8yImG4Fnar8EU3h-16" value="" style="rounded=0;sketch=1;hachureGap=4;jiggle=2;curveFitting=1;orthogonalLoop=1;jettySize=auto;html=1;strokeColor=#A8201A;fontFamily=Architects Daughter;fontSource=https%3A%2F%2Ffonts.googleapis.com%2Fcss%3Ffamily%3DArchitects%2BDaughter;fontColor=#143642;fillColor=#FAE5C7;exitX=1;exitY=0.5;exitDx=0;exitDy=0;entryX=0;entryY=0.5;entryDx=0;entryDy=0;" edge="1" parent="1" source="AWD3Y8yImG4Fnar8EU3h-13" target="AWD3Y8yImG4Fnar8EU3h-15">
          <mxGeometry relative="1" as="geometry">
            <mxPoint x="550" y="330" as="sourcePoint" />
          </mxGeometry>
        </mxCell>
        <mxCell id="AWD3Y8yImG4Fnar8EU3h-13" value="根据配置&lt;div&gt;生成校验链&lt;/div&gt;" style="whiteSpace=wrap;html=1;verticalAlign=top;sketch=1;curveFitting=1;jiggle=2;labelBackgroundColor=none;fillColor=#f8cecc;strokeColor=#b85450;align=center;" vertex="1" parent="1">
          <mxGeometry x="450" y="330" width="120" height="60" as="geometry" />
        </mxCell>
        <mxCell id="AWD3Y8yImG4Fnar8EU3h-15" value="每个ID限制一次" style="whiteSpace=wrap;html=1;verticalAlign=top;sketch=1;curveFitting=1;jiggle=2;labelBackgroundColor=none;fillColor=#f8cecc;strokeColor=#b85450;align=center;" vertex="1" parent="1">
          <mxGeometry x="620" y="330" width="120" height="60" as="geometry" />
        </mxCell>
        <mxCell id="AWD3Y8yImG4Fnar8EU3h-17" value="与达人箱子互斥" style="whiteSpace=wrap;html=1;verticalAlign=top;sketch=1;curveFitting=1;jiggle=2;labelBackgroundColor=none;fillColor=#f8cecc;strokeColor=#b85450;align=center;" vertex="1" parent="1">
          <mxGeometry x="640" y="350" width="120" height="60" as="geometry" />
        </mxCell>
        <mxCell id="AWD3Y8yImG4Fnar8EU3h-25" style="edgeStyle=orthogonalEdgeStyle;rounded=0;sketch=1;hachureGap=4;jiggle=2;curveFitting=1;orthogonalLoop=1;jettySize=auto;html=1;entryX=1;entryY=0.5;entryDx=0;entryDy=0;strokeColor=#A8201A;fontFamily=Architects Daughter;fontSource=https%3A%2F%2Ffonts.googleapis.com%2Fcss%3Ffamily%3DArchitects%2BDaughter;fontColor=#143642;fillColor=#FAE5C7;" edge="1" parent="1" source="AWD3Y8yImG4Fnar8EU3h-22" target="AWD3Y8yImG4Fnar8EU3h-9">
          <mxGeometry relative="1" as="geometry">
            <Array as="points">
              <mxPoint x="720" y="500" />
            </Array>
          </mxGeometry>
        </mxCell>
        <mxCell id="AWD3Y8yImG4Fnar8EU3h-22" value="等等" style="whiteSpace=wrap;html=1;verticalAlign=top;sketch=1;curveFitting=1;jiggle=2;labelBackgroundColor=none;fillColor=#f8cecc;strokeColor=#b85450;align=center;" vertex="1" parent="1">
          <mxGeometry x="660" y="370" width="120" height="70" as="geometry" />
        </mxCell>
      </root>
    </mxGraphModel>
  </diagram>
</mxfile>
